<svg xmlns="http://www.w3.org/2000/svg" width="760" height="340" viewBox="0 0 760 340" role="img">
<title>LongMemCode clap · accuracy (cam vs codegraph)</title>
<rect width="760" height="340" fill="#ffffff"/>
<text x="64" y="22" fill="#0f172a" font-size="14" font-family="ui-sans-serif,system-ui,sans-serif" font-weight="600">LongMemCode clap · accuracy (cam vs codegraph)</text>
<line x1="64" y1="268.0" x2="744" y2="268.0" stroke="#e2e8f0" stroke-width="1"/>
<text x="56" y="272.0" text-anchor="end" fill="#64748b" font-size="11" font-family="ui-sans-serif,system-ui,sans-serif">0.00</text>
<line x1="64" y1="210.0" x2="744" y2="210.0" stroke="#e2e8f0" stroke-width="1"/>
<text x="56" y="214.0" text-anchor="end" fill="#64748b" font-size="11" font-family="ui-sans-serif,system-ui,sans-serif">0.25</text>
<line x1="64" y1="152.0" x2="744" y2="152.0" stroke="#e2e8f0" stroke-width="1"/>
<text x="56" y="156.0" text-anchor="end" fill="#64748b" font-size="11" font-family="ui-sans-serif,system-ui,sans-serif">0.50</text>
<line x1="64" y1="94.0" x2="744" y2="94.0" stroke="#e2e8f0" stroke-width="1"/>
<text x="56" y="98.0" text-anchor="end" fill="#64748b" font-size="11" font-family="ui-sans-serif,system-ui,sans-serif">0.75</text>
<line x1="64" y1="36.0" x2="744" y2="36.0" stroke="#e2e8f0" stroke-width="1"/>
<text x="56" y="40.0" text-anchor="end" fill="#64748b" font-size="11" font-family="ui-sans-serif,system-ui,sans-serif">1.00</text>
<text x="104.9" y="298" text-anchor="middle" fill="#64748b" font-size="11" font-family="ui-sans-serif,system-ui,sans-serif">lookup</text>
<rect x="64.0" y="80.5" width="33.5" height="187.5" rx="2" fill="#2563eb"/>
<text x="80.8" y="76.5" text-anchor="middle" fill="#0f172a" font-size="10" font-family="ui-sans-serif,system-ui,sans-serif">0.808</text>
<rect x="104.9" y="80.5" width="33.5" height="187.5" rx="2" fill="#ea580c"/>
<text x="121.6" y="76.5" text-anchor="middle" fill="#0f172a" font-size="10" font-family="ui-sans-serif,system-ui,sans-serif">0.808</text>
<text x="204.6" y="298" text-anchor="middle" fill="#64748b" font-size="11" font-family="ui-sans-serif,system-ui,sans-serif">file_symbols</text>
<rect x="163.7" y="55.8" width="33.5" height="212.2" rx="2" fill="#2563eb"/>
<text x="180.5" y="51.8" text-anchor="middle" fill="#0f172a" font-size="10" font-family="ui-sans-serif,system-ui,sans-serif">0.915</text>
<rect x="204.6" y="55.8" width="33.5" height="212.2" rx="2" fill="#ea580c"/>
<text x="221.3" y="51.8" text-anchor="middle" fill="#0f172a" font-size="10" font-family="ui-sans-serif,system-ui,sans-serif">0.915</text>
<text x="304.3" y="298" text-anchor="middle" fill="#64748b" font-size="11" font-family="ui-sans-serif,system-ui,sans-serif">contained_by</text>
<rect x="263.4" y="102.8" width="33.5" height="165.2" rx="2" fill="#2563eb"/>
<text x="280.2" y="98.8" text-anchor="middle" fill="#0f172a" font-size="10" font-family="ui-sans-serif,system-ui,sans-serif">0.712</text>
<rect x="304.3" y="103.9" width="33.5" height="164.1" rx="2" fill="#ea580c"/>
<text x="321.0" y="99.9" text-anchor="middle" fill="#0f172a" font-size="10" font-family="ui-sans-serif,system-ui,sans-serif">0.708</text>
<text x="404.0" y="298" text-anchor="middle" fill="#64748b" font-size="11" font-family="ui-sans-serif,system-ui,sans-serif">callers</text>
<rect x="363.1" y="175.9" width="33.5" height="92.1" rx="2" fill="#2563eb"/>
<text x="379.9" y="171.9" text-anchor="middle" fill="#0f172a" font-size="10" font-family="ui-sans-serif,system-ui,sans-serif">0.397</text>
<rect x="404.0" y="180.0" width="33.5" height="88.0" rx="2" fill="#ea580c"/>
<text x="420.8" y="176.0" text-anchor="middle" fill="#0f172a" font-size="10" font-family="ui-sans-serif,system-ui,sans-serif">0.379</text>
<text x="503.7" y="298" text-anchor="middle" fill="#64748b" font-size="11" font-family="ui-sans-serif,system-ui,sans-serif">callees</text>
<rect x="462.9" y="79.8" width="33.5" height="188.2" rx="2" fill="#2563eb"/>
<text x="479.6" y="75.8" text-anchor="middle" fill="#0f172a" font-size="10" font-family="ui-sans-serif,system-ui,sans-serif">0.811</text>
<rect x="503.7" y="79.8" width="33.5" height="188.2" rx="2" fill="#ea580c"/>
<text x="520.5" y="75.8" text-anchor="middle" fill="#0f172a" font-size="10" font-family="ui-sans-serif,system-ui,sans-serif">0.811</text>
<text x="603.4" y="298" text-anchor="middle" fill="#64748b" font-size="11" font-family="ui-sans-serif,system-ui,sans-serif">implementors</text>
<rect x="562.6" y="240.4" width="33.5" height="27.6" rx="2" fill="#2563eb"/>
<text x="579.3" y="236.4" text-anchor="middle" fill="#0f172a" font-size="10" font-family="ui-sans-serif,system-ui,sans-serif">0.119</text>
<rect x="603.4" y="246.2" width="33.5" height="21.8" rx="2" fill="#ea580c"/>
<text x="620.2" y="242.2" text-anchor="middle" fill="#0f172a" font-size="10" font-family="ui-sans-serif,system-ui,sans-serif">0.094</text>
<text x="703.1" y="298" text-anchor="middle" fill="#64748b" font-size="11" font-family="ui-sans-serif,system-ui,sans-serif">weighted</text>
<rect x="662.3" y="104.6" width="33.5" height="163.4" rx="2" fill="#2563eb"/>
<text x="679.0" y="100.6" text-anchor="middle" fill="#0f172a" font-size="10" font-family="ui-sans-serif,system-ui,sans-serif">0.704</text>
<rect x="703.1" y="105.1" width="33.5" height="162.9" rx="2" fill="#ea580c"/>
<text x="719.9" y="101.1" text-anchor="middle" fill="#0f172a" font-size="10" font-family="ui-sans-serif,system-ui,sans-serif">0.702</text>
<rect x="64" y="317" width="10" height="10" rx="2" fill="#2563eb"/>
<text x="78" y="326" fill="#0f172a" font-size="11" font-family="ui-sans-serif,system-ui,sans-serif">cam</text>
<rect x="121" y="317" width="10" height="10" rx="2" fill="#ea580c"/>
<text x="135" y="326" fill="#0f172a" font-size="11" font-family="ui-sans-serif,system-ui,sans-serif">codegraph</text>
</svg>
