<svg xmlns="http://www.w3.org/2000/svg" width="760" height="340" viewBox="0 0 760 340" role="img">
<title>coding-agent-life-v1 · R@5 by question type</title>
<rect width="760" height="340" fill="#ffffff"/>
<text x="64" y="22" fill="#0f172a" font-size="14" font-family="ui-sans-serif,system-ui,sans-serif" font-weight="600">coding-agent-life-v1 · R@5 by question type</text>
<line x1="64" y1="262.0" x2="744" y2="262.0" stroke="#e2e8f0" stroke-width="1"/>
<text x="56" y="266.0" text-anchor="end" fill="#64748b" font-size="11" font-family="ui-sans-serif,system-ui,sans-serif">0.00</text>
<line x1="64" y1="205.5" x2="744" y2="205.5" stroke="#e2e8f0" stroke-width="1"/>
<text x="56" y="209.5" text-anchor="end" fill="#64748b" font-size="11" font-family="ui-sans-serif,system-ui,sans-serif">0.25</text>
<line x1="64" y1="149.0" x2="744" y2="149.0" stroke="#e2e8f0" stroke-width="1"/>
<text x="56" y="153.0" text-anchor="end" fill="#64748b" font-size="11" font-family="ui-sans-serif,system-ui,sans-serif">0.50</text>
<line x1="64" y1="92.5" x2="744" y2="92.5" stroke="#e2e8f0" stroke-width="1"/>
<text x="56" y="96.5" text-anchor="end" fill="#64748b" font-size="11" font-family="ui-sans-serif,system-ui,sans-serif">0.75</text>
<line x1="64" y1="36.0" x2="744" y2="36.0" stroke="#e2e8f0" stroke-width="1"/>
<text x="56" y="40.0" text-anchor="end" fill="#64748b" font-size="11" font-family="ui-sans-serif,system-ui,sans-serif">1.00</text>
<text x="64.0" y="292" text-anchor="end" transform="rotate(-32 64.0 292)" fill="#64748b" font-size="11" font-family="ui-sans-serif,system-ui,sans-serif">bug</text>
<text x="120.7" y="292" text-anchor="end" transform="rotate(-32 120.7 292)" fill="#64748b" font-size="11" font-family="ui-sans-serif,system-ui,sans-serif">infra</text>
<text x="177.3" y="292" text-anchor="end" transform="rotate(-32 177.3 292)" fill="#64748b" font-size="11" font-family="ui-sans-serif,system-ui,sans-serif">refactor</text>
<text x="234.0" y="292" text-anchor="end" transform="rotate(-32 234.0 292)" fill="#64748b" font-size="11" font-family="ui-sans-serif,system-ui,sans-serif">feature</text>
<text x="290.7" y="292" text-anchor="end" transform="rotate(-32 290.7 292)" fill="#64748b" font-size="11" font-family="ui-sans-serif,system-ui,sans-serif">test</text>
<text x="347.3" y="292" text-anchor="end" transform="rotate(-32 347.3 292)" fill="#64748b" font-size="11" font-family="ui-sans-serif,system-ui,sans-serif">perf</text>
<text x="404.0" y="292" text-anchor="end" transform="rotate(-32 404.0 292)" fill="#64748b" font-size="11" font-family="ui-sans-serif,system-ui,sans-serif">api</text>
<text x="460.7" y="292" text-anchor="end" transform="rotate(-32 460.7 292)" fill="#64748b" font-size="11" font-family="ui-sans-serif,system-ui,sans-serif">db</text>
<text x="517.3" y="292" text-anchor="end" transform="rotate(-32 517.3 292)" fill="#64748b" font-size="11" font-family="ui-sans-serif,system-ui,sans-serif">release</text>
<text x="574.0" y="292" text-anchor="end" transform="rotate(-32 574.0 292)" fill="#64748b" font-size="11" font-family="ui-sans-serif,system-ui,sans-serif">causal</text>
<text x="630.7" y="292" text-anchor="end" transform="rotate(-32 630.7 292)" fill="#64748b" font-size="11" font-family="ui-sans-serif,system-ui,sans-serif">pref</text>
<text x="687.3" y="292" text-anchor="end" transform="rotate(-32 687.3 292)" fill="#64748b" font-size="11" font-family="ui-sans-serif,system-ui,sans-serif">review</text>
<text x="744.0" y="292" text-anchor="end" transform="rotate(-32 744.0 292)" fill="#64748b" font-size="11" font-family="ui-sans-serif,system-ui,sans-serif">temporal</text>
<polyline fill="none" stroke="#64748b" stroke-width="2.4" stroke-linejoin="round" stroke-linecap="round" points="64.0,36.0 120.7,36.0 177.3,36.0 234.0,36.0 290.7,36.0 347.3,36.0 404.0,36.0 460.7,36.0 517.3,36.0 574.0,36.0 630.7,36.0 687.3,36.0 744.0,149.0"/>
<circle cx="64.0" cy="36.0" r="3.4" fill="#64748b"/>
<circle cx="120.7" cy="36.0" r="3.4" fill="#64748b"/>
<circle cx="177.3" cy="36.0" r="3.4" fill="#64748b"/>
<circle cx="234.0" cy="36.0" r="3.4" fill="#64748b"/>
<circle cx="290.7" cy="36.0" r="3.4" fill="#64748b"/>
<circle cx="347.3" cy="36.0" r="3.4" fill="#64748b"/>
<circle cx="404.0" cy="36.0" r="3.4" fill="#64748b"/>
<circle cx="460.7" cy="36.0" r="3.4" fill="#64748b"/>
<circle cx="517.3" cy="36.0" r="3.4" fill="#64748b"/>
<circle cx="574.0" cy="36.0" r="3.4" fill="#64748b"/>
<circle cx="630.7" cy="36.0" r="3.4" fill="#64748b"/>
<circle cx="687.3" cy="36.0" r="3.4" fill="#64748b"/>
<circle cx="744.0" cy="149.0" r="3.4" fill="#64748b"/>
<polyline fill="none" stroke="#93c5fd" stroke-width="2.4" stroke-linejoin="round" stroke-linecap="round" points="64.0,36.0 120.7,36.0 177.3,36.0 234.0,36.0 290.7,36.0 347.3,36.0 404.0,36.0 460.7,36.0 517.3,36.0 574.0,149.0 630.7,36.0 687.3,36.0 744.0,149.0"/>
<circle cx="64.0" cy="36.0" r="3.4" fill="#93c5fd"/>
<circle cx="120.7" cy="36.0" r="3.4" fill="#93c5fd"/>
<circle cx="177.3" cy="36.0" r="3.4" fill="#93c5fd"/>
<circle cx="234.0" cy="36.0" r="3.4" fill="#93c5fd"/>
<circle cx="290.7" cy="36.0" r="3.4" fill="#93c5fd"/>
<circle cx="347.3" cy="36.0" r="3.4" fill="#93c5fd"/>
<circle cx="404.0" cy="36.0" r="3.4" fill="#93c5fd"/>
<circle cx="460.7" cy="36.0" r="3.4" fill="#93c5fd"/>
<circle cx="517.3" cy="36.0" r="3.4" fill="#93c5fd"/>
<circle cx="574.0" cy="149.0" r="3.4" fill="#93c5fd"/>
<circle cx="630.7" cy="36.0" r="3.4" fill="#93c5fd"/>
<circle cx="687.3" cy="36.0" r="3.4" fill="#93c5fd"/>
<circle cx="744.0" cy="149.0" r="3.4" fill="#93c5fd"/>
<polyline fill="none" stroke="#16a34a" stroke-width="2.4" stroke-linejoin="round" stroke-linecap="round" stroke-dasharray="6 4" points="64.0,36.0 120.7,36.0 177.3,36.0 234.0,36.0 290.7,36.0 347.3,36.0 404.0,36.0 460.7,36.0 517.3,36.0 574.0,36.0 630.7,36.0 687.3,36.0 744.0,36.0"/>
<circle cx="64.0" cy="36.0" r="3.4" fill="#16a34a"/>
<circle cx="120.7" cy="36.0" r="3.4" fill="#16a34a"/>
<circle cx="177.3" cy="36.0" r="3.4" fill="#16a34a"/>
<circle cx="234.0" cy="36.0" r="3.4" fill="#16a34a"/>
<circle cx="290.7" cy="36.0" r="3.4" fill="#16a34a"/>
<circle cx="347.3" cy="36.0" r="3.4" fill="#16a34a"/>
<circle cx="404.0" cy="36.0" r="3.4" fill="#16a34a"/>
<circle cx="460.7" cy="36.0" r="3.4" fill="#16a34a"/>
<circle cx="517.3" cy="36.0" r="3.4" fill="#16a34a"/>
<circle cx="574.0" cy="36.0" r="3.4" fill="#16a34a"/>
<circle cx="630.7" cy="36.0" r="3.4" fill="#16a34a"/>
<circle cx="687.3" cy="36.0" r="3.4" fill="#16a34a"/>
<circle cx="744.0" cy="36.0" r="3.4" fill="#16a34a"/>
<polyline fill="none" stroke="#2563eb" stroke-width="2.4" stroke-linejoin="round" stroke-linecap="round" points="64.0,36.0 120.7,36.0 177.3,36.0 234.0,36.0 290.7,36.0 347.3,36.0 404.0,36.0 460.7,36.0 517.3,36.0 574.0,36.0 630.7,36.0 687.3,36.0 744.0,36.0"/>
<circle cx="64.0" cy="36.0" r="3.4" fill="#2563eb"/>
<circle cx="120.7" cy="36.0" r="3.4" fill="#2563eb"/>
<circle cx="177.3" cy="36.0" r="3.4" fill="#2563eb"/>
<circle cx="234.0" cy="36.0" r="3.4" fill="#2563eb"/>
<circle cx="290.7" cy="36.0" r="3.4" fill="#2563eb"/>
<circle cx="347.3" cy="36.0" r="3.4" fill="#2563eb"/>
<circle cx="404.0" cy="36.0" r="3.4" fill="#2563eb"/>
<circle cx="460.7" cy="36.0" r="3.4" fill="#2563eb"/>
<circle cx="517.3" cy="36.0" r="3.4" fill="#2563eb"/>
<circle cx="574.0" cy="36.0" r="3.4" fill="#2563eb"/>
<circle cx="630.7" cy="36.0" r="3.4" fill="#2563eb"/>
<circle cx="687.3" cy="36.0" r="3.4" fill="#2563eb"/>
<circle cx="744.0" cy="36.0" r="3.4" fill="#2563eb"/>
<rect x="64" y="317" width="10" height="10" rx="2" fill="#64748b"/>
<text x="78" y="326" fill="#0f172a" font-size="11" font-family="ui-sans-serif,system-ui,sans-serif">grep</text>
<rect x="128" y="317" width="10" height="10" rx="2" fill="#93c5fd"/>
<text x="142" y="326" fill="#0f172a" font-size="11" font-family="ui-sans-serif,system-ui,sans-serif">cam sum</text>
<rect x="213" y="317" width="10" height="10" rx="2" fill="#16a34a"/>
<text x="227" y="326" fill="#0f172a" font-size="11" font-family="ui-sans-serif,system-ui,sans-serif">agentmemory hybrid</text>
<rect x="375" y="317" width="10" height="10" rx="2" fill="#2563eb"/>
<text x="389" y="326" fill="#0f172a" font-size="11" font-family="ui-sans-serif,system-ui,sans-serif">cam RRF</text>
</svg>
